<mxfile host="app.diagrams.net" modified="2021-01-18T06:41:06.269Z" agent="5.0 (Windows NT 10.0; Win64; x64) AppleWebKit/537.36 (KHTML, like Gecko) Chrome/87.0.4280.141 Safari/537.36 Edg/87.0.664.75" etag="npYozZJbADUQuaq3aUtQ" version="14.2.4" type="github">
  <diagram name="Page-1" id="4bd5d27a-524c-7e24-5d5f-89a86ee4fca1">
    <mxGraphModel dx="2246" dy="1789" grid="1" gridSize="10" guides="1" tooltips="1" connect="1" arrows="1" fold="1" page="1" pageScale="1" pageWidth="1100" pageHeight="850" background="#ffffff" math="0" shadow="0">
      <root>
        <mxCell id="0" />
        <mxCell id="1" parent="0" />
        <mxCell id="bloDdJwxvZP5sfPyRFxj-1" value="" style="verticalLabelPosition=bottom;html=1;verticalAlign=top;align=center;shape=mxgraph.floorplan.room;fillColor=#000000;" vertex="1" parent="1">
          <mxGeometry x="1170" y="160" width="1940" height="1230" as="geometry" />
        </mxCell>
        <mxCell id="bloDdJwxvZP5sfPyRFxj-2" value="" style="verticalLabelPosition=bottom;html=1;verticalAlign=top;align=center;shape=mxgraph.floorplan.window;" vertex="1" parent="1">
          <mxGeometry x="1260" y="1380" width="1750" height="10" as="geometry" />
        </mxCell>
        <mxCell id="bloDdJwxvZP5sfPyRFxj-3" value="" style="verticalLabelPosition=bottom;html=1;verticalAlign=top;align=center;shape=mxgraph.floorplan.doorDouble;aspect=fixed;rotation=-180;" vertex="1" parent="1">
          <mxGeometry x="1240" y="80" width="160" height="85" as="geometry" />
        </mxCell>
        <mxCell id="bloDdJwxvZP5sfPyRFxj-4" value="" style="verticalLabelPosition=bottom;html=1;verticalAlign=top;align=center;shape=mxgraph.floorplan.desk_corner;" vertex="1" parent="1">
          <mxGeometry x="1210" y="340" width="150" height="150" as="geometry" />
        </mxCell>
        <mxCell id="bloDdJwxvZP5sfPyRFxj-5" value="" style="verticalLabelPosition=bottom;html=1;verticalAlign=top;align=center;shape=mxgraph.floorplan.desk_corner;rotation=90;" vertex="1" parent="1">
          <mxGeometry x="1520" y="340" width="150" height="150" as="geometry" />
        </mxCell>
        <mxCell id="bloDdJwxvZP5sfPyRFxj-6" value="" style="verticalLabelPosition=bottom;html=1;verticalAlign=top;align=center;shape=mxgraph.floorplan.desk_corner;rotation=90;" vertex="1" parent="1">
          <mxGeometry x="1520" y="500" width="150" height="150" as="geometry" />
        </mxCell>
        <mxCell id="bloDdJwxvZP5sfPyRFxj-7" value="" style="verticalLabelPosition=bottom;html=1;verticalAlign=top;align=center;shape=mxgraph.floorplan.desk_corner;rotation=90;" vertex="1" parent="1">
          <mxGeometry x="1520" y="660" width="150" height="150" as="geometry" />
        </mxCell>
        <mxCell id="bloDdJwxvZP5sfPyRFxj-8" value="" style="verticalLabelPosition=bottom;html=1;verticalAlign=top;align=center;shape=mxgraph.floorplan.desk_corner;rotation=90;" vertex="1" parent="1">
          <mxGeometry x="1520" y="820" width="150" height="150" as="geometry" />
        </mxCell>
        <mxCell id="bloDdJwxvZP5sfPyRFxj-9" value="" style="verticalLabelPosition=bottom;html=1;verticalAlign=top;align=center;shape=mxgraph.floorplan.desk_corner;rotation=90;" vertex="1" parent="1">
          <mxGeometry x="1520" y="980" width="150" height="150" as="geometry" />
        </mxCell>
        <mxCell id="bloDdJwxvZP5sfPyRFxj-10" value="" style="verticalLabelPosition=bottom;html=1;verticalAlign=top;align=center;shape=mxgraph.floorplan.desk_corner;rotation=90;" vertex="1" parent="1">
          <mxGeometry x="1520" y="1140" width="150" height="150" as="geometry" />
        </mxCell>
        <mxCell id="bloDdJwxvZP5sfPyRFxj-11" value="" style="verticalLabelPosition=bottom;html=1;verticalAlign=top;align=center;shape=mxgraph.floorplan.desk_corner;rotation=90;" vertex="1" parent="1">
          <mxGeometry x="2170" y="340" width="150" height="150" as="geometry" />
        </mxCell>
        <mxCell id="bloDdJwxvZP5sfPyRFxj-12" value="" style="verticalLabelPosition=bottom;html=1;verticalAlign=top;align=center;shape=mxgraph.floorplan.desk_corner;rotation=90;" vertex="1" parent="1">
          <mxGeometry x="2170" y="500" width="150" height="150" as="geometry" />
        </mxCell>
        <mxCell id="bloDdJwxvZP5sfPyRFxj-13" value="" style="verticalLabelPosition=bottom;html=1;verticalAlign=top;align=center;shape=mxgraph.floorplan.desk_corner;rotation=90;" vertex="1" parent="1">
          <mxGeometry x="2170" y="660" width="150" height="150" as="geometry" />
        </mxCell>
        <mxCell id="bloDdJwxvZP5sfPyRFxj-14" value="" style="verticalLabelPosition=bottom;html=1;verticalAlign=top;align=center;shape=mxgraph.floorplan.desk_corner;rotation=90;" vertex="1" parent="1">
          <mxGeometry x="2170" y="820" width="150" height="150" as="geometry" />
        </mxCell>
        <mxCell id="bloDdJwxvZP5sfPyRFxj-17" value="" style="verticalLabelPosition=bottom;html=1;verticalAlign=top;align=center;shape=mxgraph.floorplan.desk_corner;rotation=90;" vertex="1" parent="1">
          <mxGeometry x="2650" y="340" width="150" height="150" as="geometry" />
        </mxCell>
        <mxCell id="bloDdJwxvZP5sfPyRFxj-18" value="" style="verticalLabelPosition=bottom;html=1;verticalAlign=top;align=center;shape=mxgraph.floorplan.desk_corner;rotation=90;" vertex="1" parent="1">
          <mxGeometry x="2650" y="500" width="150" height="150" as="geometry" />
        </mxCell>
        <mxCell id="bloDdJwxvZP5sfPyRFxj-19" value="" style="verticalLabelPosition=bottom;html=1;verticalAlign=top;align=center;shape=mxgraph.floorplan.desk_corner;rotation=90;" vertex="1" parent="1">
          <mxGeometry x="2650" y="660" width="150" height="150" as="geometry" />
        </mxCell>
        <mxCell id="bloDdJwxvZP5sfPyRFxj-20" value="" style="verticalLabelPosition=bottom;html=1;verticalAlign=top;align=center;shape=mxgraph.floorplan.desk_corner;rotation=90;" vertex="1" parent="1">
          <mxGeometry x="2650" y="820" width="150" height="150" as="geometry" />
        </mxCell>
        <mxCell id="bloDdJwxvZP5sfPyRFxj-21" value="" style="verticalLabelPosition=bottom;html=1;verticalAlign=top;align=center;shape=mxgraph.floorplan.desk_corner;rotation=90;" vertex="1" parent="1">
          <mxGeometry x="2650" y="980" width="150" height="150" as="geometry" />
        </mxCell>
        <mxCell id="bloDdJwxvZP5sfPyRFxj-22" value="" style="verticalLabelPosition=bottom;html=1;verticalAlign=top;align=center;shape=mxgraph.floorplan.desk_corner;rotation=90;" vertex="1" parent="1">
          <mxGeometry x="2650" y="1140" width="150" height="150" as="geometry" />
        </mxCell>
        <mxCell id="bloDdJwxvZP5sfPyRFxj-23" value="" style="verticalLabelPosition=bottom;html=1;verticalAlign=top;align=center;shape=mxgraph.floorplan.desk_corner;rotation=0;" vertex="1" parent="1">
          <mxGeometry x="1680" y="340" width="150" height="150" as="geometry" />
        </mxCell>
        <mxCell id="bloDdJwxvZP5sfPyRFxj-24" value="" style="verticalLabelPosition=bottom;html=1;verticalAlign=top;align=center;shape=mxgraph.floorplan.desk_corner;rotation=0;" vertex="1" parent="1">
          <mxGeometry x="1680" y="500" width="150" height="150" as="geometry" />
        </mxCell>
        <mxCell id="bloDdJwxvZP5sfPyRFxj-25" value="" style="verticalLabelPosition=bottom;html=1;verticalAlign=top;align=center;shape=mxgraph.floorplan.desk_corner;rotation=0;" vertex="1" parent="1">
          <mxGeometry x="1680" y="660" width="150" height="150" as="geometry" />
        </mxCell>
        <mxCell id="bloDdJwxvZP5sfPyRFxj-26" value="" style="verticalLabelPosition=bottom;html=1;verticalAlign=top;align=center;shape=mxgraph.floorplan.desk_corner;rotation=0;" vertex="1" parent="1">
          <mxGeometry x="1680" y="820" width="150" height="150" as="geometry" />
        </mxCell>
        <mxCell id="bloDdJwxvZP5sfPyRFxj-27" value="" style="verticalLabelPosition=bottom;html=1;verticalAlign=top;align=center;shape=mxgraph.floorplan.desk_corner;rotation=0;" vertex="1" parent="1">
          <mxGeometry x="2330" y="340" width="150" height="150" as="geometry" />
        </mxCell>
        <mxCell id="bloDdJwxvZP5sfPyRFxj-28" value="" style="verticalLabelPosition=bottom;html=1;verticalAlign=top;align=center;shape=mxgraph.floorplan.desk_corner;rotation=0;" vertex="1" parent="1">
          <mxGeometry x="2330" y="500" width="150" height="150" as="geometry" />
        </mxCell>
        <mxCell id="bloDdJwxvZP5sfPyRFxj-29" value="" style="verticalLabelPosition=bottom;html=1;verticalAlign=top;align=center;shape=mxgraph.floorplan.desk_corner;rotation=0;" vertex="1" parent="1">
          <mxGeometry x="2330" y="660" width="150" height="150" as="geometry" />
        </mxCell>
        <mxCell id="bloDdJwxvZP5sfPyRFxj-30" value="" style="verticalLabelPosition=bottom;html=1;verticalAlign=top;align=center;shape=mxgraph.floorplan.desk_corner;rotation=0;" vertex="1" parent="1">
          <mxGeometry x="2330" y="820" width="150" height="150" as="geometry" />
        </mxCell>
        <mxCell id="bloDdJwxvZP5sfPyRFxj-31" value="" style="verticalLabelPosition=bottom;html=1;verticalAlign=top;align=center;shape=mxgraph.floorplan.desk_corner;rotation=0;" vertex="1" parent="1">
          <mxGeometry x="2330" y="980" width="150" height="150" as="geometry" />
        </mxCell>
        <mxCell id="bloDdJwxvZP5sfPyRFxj-32" value="" style="verticalLabelPosition=bottom;html=1;verticalAlign=top;align=center;shape=mxgraph.floorplan.desk_corner;rotation=0;" vertex="1" parent="1">
          <mxGeometry x="2330" y="1140" width="150" height="150" as="geometry" />
        </mxCell>
        <mxCell id="bloDdJwxvZP5sfPyRFxj-33" value="" style="verticalLabelPosition=bottom;html=1;verticalAlign=top;align=center;shape=mxgraph.floorplan.desk_corner;rotation=0;" vertex="1" parent="1">
          <mxGeometry x="2810" y="340" width="150" height="150" as="geometry" />
        </mxCell>
        <mxCell id="bloDdJwxvZP5sfPyRFxj-34" value="" style="verticalLabelPosition=bottom;html=1;verticalAlign=top;align=center;shape=mxgraph.floorplan.desk_corner;rotation=0;" vertex="1" parent="1">
          <mxGeometry x="2810" y="660" width="150" height="150" as="geometry" />
        </mxCell>
        <mxCell id="bloDdJwxvZP5sfPyRFxj-35" value="" style="verticalLabelPosition=bottom;html=1;verticalAlign=top;align=center;shape=mxgraph.floorplan.desk_corner;" vertex="1" parent="1">
          <mxGeometry x="1210" y="660" width="150" height="150" as="geometry" />
        </mxCell>
        <mxCell id="bloDdJwxvZP5sfPyRFxj-36" value="" style="verticalLabelPosition=bottom;html=1;verticalAlign=top;align=center;shape=mxgraph.floorplan.desk_corner_2;" vertex="1" parent="1">
          <mxGeometry x="1690" y="1100" width="150" height="120" as="geometry" />
        </mxCell>
        <mxCell id="bloDdJwxvZP5sfPyRFxj-39" value="" style="verticalLabelPosition=bottom;html=1;verticalAlign=top;align=center;shape=mxgraph.floorplan.elevator;fillColor=#1A1A1A;strokeColor=#FFFFFF;" vertex="1" parent="1">
          <mxGeometry x="2840" y="560" width="80" height="80" as="geometry" />
        </mxCell>
        <mxCell id="bloDdJwxvZP5sfPyRFxj-50" value="" style="verticalLabelPosition=bottom;html=1;verticalAlign=top;align=center;shape=mxgraph.floorplan.chair;strokeColor=#1A1A1A;fillColor=#FFFFFF;" vertex="1" parent="1">
          <mxGeometry x="1720" y="1040" width="41" height="52" as="geometry" />
        </mxCell>
        <mxCell id="bloDdJwxvZP5sfPyRFxj-51" value="" style="verticalLabelPosition=bottom;html=1;verticalAlign=top;align=center;shape=mxgraph.floorplan.chair;strokeColor=#1A1A1A;fillColor=#FFFFFF;" vertex="1" parent="1">
          <mxGeometry x="1770" y="1040" width="41" height="52" as="geometry" />
        </mxCell>
        <mxCell id="bloDdJwxvZP5sfPyRFxj-56" value="" style="shape=rect;shadow=0;strokeColor=#1A1A1A;fillColor=#FFFFFF;" vertex="1" parent="1">
          <mxGeometry x="1746" y="1110" width="80" height="50" as="geometry" />
        </mxCell>
        <mxCell id="bloDdJwxvZP5sfPyRFxj-57" value="" style="verticalLabelPosition=bottom;html=1;verticalAlign=top;align=center;shape=mxgraph.floorplan.workstation;shadow=0;flipV=1;strokeColor=#1A1A1A;fillColor=#FFFFFF;rotation=-180;" vertex="1" parent="1">
          <mxGeometry x="1761" y="1120" width="50" height="40" as="geometry" />
        </mxCell>
        <mxCell id="bloDdJwxvZP5sfPyRFxj-59" value="" style="verticalLabelPosition=bottom;html=1;verticalAlign=top;align=center;shape=mxgraph.floorplan.chair;strokeColor=#1A1A1A;fillColor=#FFFFFF;rotation=-180;" vertex="1" parent="1">
          <mxGeometry x="1765.5" y="1168" width="41" height="52" as="geometry" />
        </mxCell>
        <mxCell id="bloDdJwxvZP5sfPyRFxj-60" value="" style="verticalLabelPosition=bottom;html=1;verticalAlign=top;align=center;shape=mxgraph.floorplan.desk_corner_2;" vertex="1" parent="1">
          <mxGeometry x="1210" y="930" width="150" height="120" as="geometry" />
        </mxCell>
        <mxCell id="bloDdJwxvZP5sfPyRFxj-61" value="" style="verticalLabelPosition=bottom;html=1;verticalAlign=top;align=center;shape=mxgraph.floorplan.chair;strokeColor=#1A1A1A;fillColor=#FFFFFF;" vertex="1" parent="1">
          <mxGeometry x="1240" y="870" width="41" height="52" as="geometry" />
        </mxCell>
        <mxCell id="bloDdJwxvZP5sfPyRFxj-62" value="" style="verticalLabelPosition=bottom;html=1;verticalAlign=top;align=center;shape=mxgraph.floorplan.chair;strokeColor=#1A1A1A;fillColor=#FFFFFF;" vertex="1" parent="1">
          <mxGeometry x="1290" y="870" width="41" height="52" as="geometry" />
        </mxCell>
        <mxCell id="bloDdJwxvZP5sfPyRFxj-63" value="" style="shape=rect;shadow=0;strokeColor=#1A1A1A;fillColor=#FFFFFF;" vertex="1" parent="1">
          <mxGeometry x="1266" y="940" width="80" height="50" as="geometry" />
        </mxCell>
        <mxCell id="bloDdJwxvZP5sfPyRFxj-64" value="" style="verticalLabelPosition=bottom;html=1;verticalAlign=top;align=center;shape=mxgraph.floorplan.workstation;shadow=0;flipV=1;strokeColor=#1A1A1A;fillColor=#FFFFFF;rotation=-180;" vertex="1" parent="1">
          <mxGeometry x="1281" y="950" width="50" height="40" as="geometry" />
        </mxCell>
        <mxCell id="bloDdJwxvZP5sfPyRFxj-65" value="" style="verticalLabelPosition=bottom;html=1;verticalAlign=top;align=center;shape=mxgraph.floorplan.chair;strokeColor=#1A1A1A;fillColor=#FFFFFF;rotation=-180;" vertex="1" parent="1">
          <mxGeometry x="1285.5" y="998" width="41" height="52" as="geometry" />
        </mxCell>
        <mxCell id="bloDdJwxvZP5sfPyRFxj-66" value="" style="verticalLabelPosition=bottom;html=1;verticalAlign=top;align=center;shape=mxgraph.floorplan.desk_corner_2;" vertex="1" parent="1">
          <mxGeometry x="2810" y="950" width="150" height="120" as="geometry" />
        </mxCell>
        <mxCell id="bloDdJwxvZP5sfPyRFxj-67" value="" style="verticalLabelPosition=bottom;html=1;verticalAlign=top;align=center;shape=mxgraph.floorplan.chair;strokeColor=#1A1A1A;fillColor=#FFFFFF;" vertex="1" parent="1">
          <mxGeometry x="2840" y="890" width="41" height="52" as="geometry" />
        </mxCell>
        <mxCell id="bloDdJwxvZP5sfPyRFxj-68" value="" style="verticalLabelPosition=bottom;html=1;verticalAlign=top;align=center;shape=mxgraph.floorplan.chair;strokeColor=#1A1A1A;fillColor=#FFFFFF;" vertex="1" parent="1">
          <mxGeometry x="2890" y="890" width="41" height="52" as="geometry" />
        </mxCell>
        <mxCell id="bloDdJwxvZP5sfPyRFxj-69" value="" style="shape=rect;shadow=0;strokeColor=#1A1A1A;fillColor=#FFFFFF;" vertex="1" parent="1">
          <mxGeometry x="2866" y="960" width="80" height="50" as="geometry" />
        </mxCell>
        <mxCell id="bloDdJwxvZP5sfPyRFxj-70" value="" style="verticalLabelPosition=bottom;html=1;verticalAlign=top;align=center;shape=mxgraph.floorplan.workstation;shadow=0;flipV=1;strokeColor=#1A1A1A;fillColor=#FFFFFF;rotation=-180;" vertex="1" parent="1">
          <mxGeometry x="2881" y="970" width="50" height="40" as="geometry" />
        </mxCell>
        <mxCell id="bloDdJwxvZP5sfPyRFxj-71" value="" style="verticalLabelPosition=bottom;html=1;verticalAlign=top;align=center;shape=mxgraph.floorplan.chair;strokeColor=#1A1A1A;fillColor=#FFFFFF;rotation=-180;" vertex="1" parent="1">
          <mxGeometry x="2885.5" y="1018" width="41" height="52" as="geometry" />
        </mxCell>
        <mxCell id="bloDdJwxvZP5sfPyRFxj-72" value="" style="verticalLabelPosition=bottom;html=1;verticalAlign=top;align=center;shape=mxgraph.floorplan.elevator;fillColor=#1A1A1A;strokeColor=#FFFFFF;" vertex="1" parent="1">
          <mxGeometry x="2820.5" y="1160" width="80" height="80" as="geometry" />
        </mxCell>
        <mxCell id="bloDdJwxvZP5sfPyRFxj-73" value="" style="verticalLabelPosition=bottom;html=1;verticalAlign=top;align=center;shape=mxgraph.floorplan.elevator;fillColor=#1A1A1A;strokeColor=#FFFFFF;" vertex="1" parent="1">
          <mxGeometry x="2830.5" y="1170" width="80" height="80" as="geometry" />
        </mxCell>
        <mxCell id="bloDdJwxvZP5sfPyRFxj-74" value="" style="verticalLabelPosition=bottom;html=1;verticalAlign=top;align=center;shape=mxgraph.floorplan.elevator;strokeColor=#1A1A1A;fillColor=#FFFFFF;" vertex="1" parent="1">
          <mxGeometry x="1950" y="350" width="50" height="115" as="geometry" />
        </mxCell>
        <mxCell id="bloDdJwxvZP5sfPyRFxj-75" value="" style="verticalLabelPosition=bottom;html=1;verticalAlign=top;align=center;shape=mxgraph.floorplan.elevator;strokeColor=#1A1A1A;fillColor=#FFFFFF;" vertex="1" parent="1">
          <mxGeometry x="1950" y="460" width="50" height="115" as="geometry" />
        </mxCell>
        <mxCell id="bloDdJwxvZP5sfPyRFxj-76" value="" style="verticalLabelPosition=bottom;html=1;verticalAlign=top;align=center;shape=mxgraph.floorplan.elevator;strokeColor=#1A1A1A;fillColor=#FFFFFF;" vertex="1" parent="1">
          <mxGeometry x="1950" y="575" width="50" height="115" as="geometry" />
        </mxCell>
        <mxCell id="bloDdJwxvZP5sfPyRFxj-77" value="" style="verticalLabelPosition=bottom;html=1;verticalAlign=top;align=center;shape=mxgraph.floorplan.elevator;strokeColor=#1A1A1A;fillColor=#FFFFFF;" vertex="1" parent="1">
          <mxGeometry x="1950" y="687.5" width="50" height="115" as="geometry" />
        </mxCell>
        <mxCell id="bloDdJwxvZP5sfPyRFxj-78" value="" style="verticalLabelPosition=bottom;html=1;verticalAlign=top;align=center;shape=mxgraph.floorplan.elevator;strokeColor=#1A1A1A;fillColor=#FFFFFF;" vertex="1" parent="1">
          <mxGeometry x="1950" y="802.5" width="50" height="115" as="geometry" />
        </mxCell>
        <mxCell id="bloDdJwxvZP5sfPyRFxj-79" value="" style="verticalLabelPosition=bottom;html=1;verticalAlign=top;align=center;shape=mxgraph.floorplan.elevator;strokeColor=#1A1A1A;fillColor=#FFFFFF;" vertex="1" parent="1">
          <mxGeometry x="1950" y="912.5" width="50" height="115" as="geometry" />
        </mxCell>
        <mxCell id="bloDdJwxvZP5sfPyRFxj-80" value="" style="verticalLabelPosition=bottom;html=1;verticalAlign=top;align=center;shape=mxgraph.floorplan.elevator;strokeColor=#1A1A1A;fillColor=#FFFFFF;" vertex="1" parent="1">
          <mxGeometry x="1950" y="1027.5" width="50" height="115" as="geometry" />
        </mxCell>
        <mxCell id="bloDdJwxvZP5sfPyRFxj-81" value="" style="verticalLabelPosition=bottom;html=1;verticalAlign=top;align=center;shape=mxgraph.floorplan.elevator;strokeColor=#1A1A1A;fillColor=#FFFFFF;" vertex="1" parent="1">
          <mxGeometry x="1950" y="1140" width="50" height="115" as="geometry" />
        </mxCell>
        <mxCell id="bloDdJwxvZP5sfPyRFxj-82" value="" style="verticalLabelPosition=bottom;html=1;verticalAlign=top;align=center;shape=mxgraph.floorplan.elevator;strokeColor=#1A1A1A;fillColor=#FFFFFF;" vertex="1" parent="1">
          <mxGeometry x="2000" y="350" width="50" height="115" as="geometry" />
        </mxCell>
        <mxCell id="bloDdJwxvZP5sfPyRFxj-83" value="" style="verticalLabelPosition=bottom;html=1;verticalAlign=top;align=center;shape=mxgraph.floorplan.elevator;strokeColor=#1A1A1A;fillColor=#FFFFFF;" vertex="1" parent="1">
          <mxGeometry x="2000" y="460" width="50" height="115" as="geometry" />
        </mxCell>
        <mxCell id="bloDdJwxvZP5sfPyRFxj-85" value="" style="verticalLabelPosition=bottom;html=1;verticalAlign=top;align=center;shape=mxgraph.floorplan.elevator;strokeColor=#1A1A1A;fillColor=#FFFFFF;" vertex="1" parent="1">
          <mxGeometry x="2000" y="687.5" width="50" height="115" as="geometry" />
        </mxCell>
        <mxCell id="bloDdJwxvZP5sfPyRFxj-86" value="" style="verticalLabelPosition=bottom;html=1;verticalAlign=top;align=center;shape=mxgraph.floorplan.elevator;strokeColor=#1A1A1A;fillColor=#FFFFFF;" vertex="1" parent="1">
          <mxGeometry x="2000" y="802.5" width="50" height="115" as="geometry" />
        </mxCell>
        <mxCell id="bloDdJwxvZP5sfPyRFxj-87" value="" style="verticalLabelPosition=bottom;html=1;verticalAlign=top;align=center;shape=mxgraph.floorplan.elevator;strokeColor=#1A1A1A;fillColor=#FFFFFF;" vertex="1" parent="1">
          <mxGeometry x="2000" y="912.5" width="50" height="115" as="geometry" />
        </mxCell>
        <mxCell id="bloDdJwxvZP5sfPyRFxj-88" value="" style="verticalLabelPosition=bottom;html=1;verticalAlign=top;align=center;shape=mxgraph.floorplan.elevator;strokeColor=#1A1A1A;fillColor=#FFFFFF;" vertex="1" parent="1">
          <mxGeometry x="2000" y="1027.5" width="50" height="115" as="geometry" />
        </mxCell>
        <mxCell id="bloDdJwxvZP5sfPyRFxj-90" value="" style="verticalLabelPosition=bottom;html=1;verticalAlign=top;align=center;shape=mxgraph.floorplan.elevator;fillColor=#1A1A1A;strokeColor=#FFFFFF;" vertex="1" parent="1">
          <mxGeometry x="2000" y="570" width="80" height="80" as="geometry" />
        </mxCell>
        <mxCell id="bloDdJwxvZP5sfPyRFxj-91" value="" style="verticalLabelPosition=bottom;html=1;verticalAlign=top;align=center;shape=mxgraph.floorplan.elevator;fillColor=#1A1A1A;strokeColor=#FFFFFF;" vertex="1" parent="1">
          <mxGeometry x="1326.5" y="560" width="80" height="80" as="geometry" />
        </mxCell>
        <mxCell id="bloDdJwxvZP5sfPyRFxj-92" value="" style="verticalLabelPosition=bottom;html=1;verticalAlign=top;align=center;shape=mxgraph.floorplan.elevator;fillColor=#1A1A1A;strokeColor=#FFFFFF;" vertex="1" parent="1">
          <mxGeometry x="1310" y="1157.5" width="80" height="80" as="geometry" />
        </mxCell>
        <mxCell id="bloDdJwxvZP5sfPyRFxj-93" value="" style="verticalLabelPosition=bottom;html=1;verticalAlign=top;align=center;shape=mxgraph.floorplan.desk_corner_2;rotation=0;" vertex="1" parent="1">
          <mxGeometry x="2160" y="1087.5" width="150" height="120" as="geometry" />
        </mxCell>
        <mxCell id="bloDdJwxvZP5sfPyRFxj-94" value="" style="verticalLabelPosition=bottom;html=1;verticalAlign=top;align=center;shape=mxgraph.floorplan.chair;strokeColor=#1A1A1A;fillColor=#FFFFFF;" vertex="1" parent="1">
          <mxGeometry x="2190" y="1027.5" width="41" height="52" as="geometry" />
        </mxCell>
        <mxCell id="bloDdJwxvZP5sfPyRFxj-95" value="" style="verticalLabelPosition=bottom;html=1;verticalAlign=top;align=center;shape=mxgraph.floorplan.chair;strokeColor=#1A1A1A;fillColor=#FFFFFF;" vertex="1" parent="1">
          <mxGeometry x="2240" y="1027.5" width="41" height="52" as="geometry" />
        </mxCell>
        <mxCell id="bloDdJwxvZP5sfPyRFxj-96" value="" style="shape=rect;shadow=0;strokeColor=#1A1A1A;fillColor=#FFFFFF;" vertex="1" parent="1">
          <mxGeometry x="2216" y="1097.5" width="80" height="50" as="geometry" />
        </mxCell>
        <mxCell id="bloDdJwxvZP5sfPyRFxj-97" value="" style="verticalLabelPosition=bottom;html=1;verticalAlign=top;align=center;shape=mxgraph.floorplan.workstation;shadow=0;flipV=1;strokeColor=#1A1A1A;fillColor=#FFFFFF;rotation=-180;" vertex="1" parent="1">
          <mxGeometry x="2231" y="1107.5" width="50" height="40" as="geometry" />
        </mxCell>
        <mxCell id="bloDdJwxvZP5sfPyRFxj-98" value="" style="verticalLabelPosition=bottom;html=1;verticalAlign=top;align=center;shape=mxgraph.floorplan.chair;strokeColor=#1A1A1A;fillColor=#FFFFFF;rotation=-180;" vertex="1" parent="1">
          <mxGeometry x="2235.5" y="1155.5" width="41" height="52" as="geometry" />
        </mxCell>
        <mxCell id="bloDdJwxvZP5sfPyRFxj-99" value="" style="verticalLabelPosition=bottom;html=1;verticalAlign=top;align=center;shape=mxgraph.floorplan.elevator;fillColor=#1A1A1A;strokeColor=#FFFFFF;" vertex="1" parent="1">
          <mxGeometry x="2000" y="1170" width="80" height="80" as="geometry" />
        </mxCell>
        <mxCell id="bloDdJwxvZP5sfPyRFxj-100" value="" style="verticalLabelPosition=bottom;html=1;verticalAlign=top;align=center;shape=mxgraph.floorplan.doorDouble;aspect=fixed;rotation=-180;" vertex="1" parent="1">
          <mxGeometry x="2771" y="80" width="160" height="85" as="geometry" />
        </mxCell>
        <mxCell id="bloDdJwxvZP5sfPyRFxj-101" value="" style="verticalLabelPosition=bottom;html=1;verticalAlign=top;align=center;shape=mxgraph.floorplan.bookcase;strokeColor=#1A1A1A;fillColor=#FFFFFF;" vertex="1" parent="1">
          <mxGeometry x="1500" y="170" width="140" height="40" as="geometry" />
        </mxCell>
        <mxCell id="bloDdJwxvZP5sfPyRFxj-102" value="" style="verticalLabelPosition=bottom;html=1;verticalAlign=top;align=center;shape=mxgraph.floorplan.bookcase;strokeColor=#1A1A1A;fillColor=#FFFFFF;" vertex="1" parent="1">
          <mxGeometry x="1640" y="170" width="140" height="40" as="geometry" />
        </mxCell>
        <mxCell id="bloDdJwxvZP5sfPyRFxj-103" value="" style="verticalLabelPosition=bottom;html=1;verticalAlign=top;align=center;shape=mxgraph.floorplan.bookcase;strokeColor=#1A1A1A;fillColor=#FFFFFF;" vertex="1" parent="1">
          <mxGeometry x="1780" y="170" width="140" height="40" as="geometry" />
        </mxCell>
        <mxCell id="bloDdJwxvZP5sfPyRFxj-104" value="" style="verticalLabelPosition=bottom;html=1;verticalAlign=top;align=center;shape=mxgraph.floorplan.bookcase;strokeColor=#1A1A1A;fillColor=#FFFFFF;" vertex="1" parent="1">
          <mxGeometry x="1920" y="170" width="140" height="40" as="geometry" />
        </mxCell>
        <mxCell id="bloDdJwxvZP5sfPyRFxj-105" value="" style="verticalLabelPosition=bottom;html=1;verticalAlign=top;align=center;shape=mxgraph.floorplan.bookcase;strokeColor=#1A1A1A;fillColor=#FFFFFF;" vertex="1" parent="1">
          <mxGeometry x="2060" y="170" width="140" height="40" as="geometry" />
        </mxCell>
        <mxCell id="bloDdJwxvZP5sfPyRFxj-106" value="" style="verticalLabelPosition=bottom;html=1;verticalAlign=top;align=center;shape=mxgraph.floorplan.bookcase;strokeColor=#1A1A1A;fillColor=#FFFFFF;" vertex="1" parent="1">
          <mxGeometry x="2200" y="170" width="140" height="40" as="geometry" />
        </mxCell>
        <mxCell id="bloDdJwxvZP5sfPyRFxj-107" value="" style="verticalLabelPosition=bottom;html=1;verticalAlign=top;align=center;shape=mxgraph.floorplan.bookcase;strokeColor=#1A1A1A;fillColor=#FFFFFF;" vertex="1" parent="1">
          <mxGeometry x="2340" y="170" width="140" height="40" as="geometry" />
        </mxCell>
        <mxCell id="bloDdJwxvZP5sfPyRFxj-108" value="" style="verticalLabelPosition=bottom;html=1;verticalAlign=top;align=center;shape=mxgraph.floorplan.bookcase;strokeColor=#1A1A1A;fillColor=#FFFFFF;" vertex="1" parent="1">
          <mxGeometry x="2480" y="170" width="140" height="40" as="geometry" />
        </mxCell>
        <mxCell id="bloDdJwxvZP5sfPyRFxj-109" value="v" style="verticalLabelPosition=bottom;html=1;verticalAlign=top;align=center;shape=mxgraph.floorplan.windowGarden;dx=0.25;strokeColor=#1A1A1A;fillColor=#FFFFFF;" vertex="1" parent="1">
          <mxGeometry x="1406.5" y="1370" width="193.5" height="20" as="geometry" />
        </mxCell>
        <mxCell id="bloDdJwxvZP5sfPyRFxj-110" value="v" style="verticalLabelPosition=bottom;html=1;verticalAlign=top;align=center;shape=mxgraph.floorplan.windowGarden;dx=0.25;strokeColor=#1A1A1A;fillColor=#FFFFFF;" vertex="1" parent="1">
          <mxGeometry x="1900" y="1370" width="193.5" height="20" as="geometry" />
        </mxCell>
        <mxCell id="bloDdJwxvZP5sfPyRFxj-111" value="v" style="verticalLabelPosition=bottom;html=1;verticalAlign=top;align=center;shape=mxgraph.floorplan.windowGarden;dx=0.25;strokeColor=#1A1A1A;fillColor=#FFFFFF;" vertex="1" parent="1">
          <mxGeometry x="2510" y="1370" width="193.5" height="20" as="geometry" />
        </mxCell>
        <mxCell id="bloDdJwxvZP5sfPyRFxj-112" value="&lt;h3&gt;&lt;font style=&quot;font-size: 45px&quot;&gt;室主任4&lt;/font&gt;&lt;/h3&gt;" style="text;html=1;strokeColor=none;fillColor=none;align=center;verticalAlign=middle;whiteSpace=wrap;rounded=0;" vertex="1" parent="1">
          <mxGeometry x="1210" y="1068" width="174.5" height="52" as="geometry" />
        </mxCell>
        <mxCell id="bloDdJwxvZP5sfPyRFxj-113" value="&lt;h3&gt;&lt;font style=&quot;font-size: 45px&quot;&gt;室主任1&lt;/font&gt;&lt;/h3&gt;" style="text;html=1;strokeColor=none;fillColor=none;align=center;verticalAlign=middle;whiteSpace=wrap;rounded=0;" vertex="1" parent="1">
          <mxGeometry x="2830.5" y="1088" width="174.5" height="52" as="geometry" />
        </mxCell>
        <mxCell id="bloDdJwxvZP5sfPyRFxj-114" value="&lt;h3&gt;&lt;font style=&quot;font-size: 45px&quot;&gt;室主任2&lt;/font&gt;&lt;/h3&gt;" style="text;html=1;strokeColor=none;fillColor=none;align=center;verticalAlign=middle;whiteSpace=wrap;rounded=0;" vertex="1" parent="1">
          <mxGeometry x="2147.75" y="1220" width="174.5" height="52" as="geometry" />
        </mxCell>
        <mxCell id="bloDdJwxvZP5sfPyRFxj-115" value="&lt;h3&gt;&lt;font style=&quot;font-size: 45px&quot;&gt;室主任3&lt;/font&gt;&lt;/h3&gt;" style="text;html=1;strokeColor=none;fillColor=none;align=center;verticalAlign=middle;whiteSpace=wrap;rounded=0;" vertex="1" parent="1">
          <mxGeometry x="1690" y="1230" width="174.5" height="52" as="geometry" />
        </mxCell>
        <mxCell id="bloDdJwxvZP5sfPyRFxj-117" value="&lt;h3&gt;&lt;font style=&quot;font-size: 50px&quot;&gt;1&lt;/font&gt;&lt;/h3&gt;" style="text;html=1;strokeColor=none;fillColor=none;align=center;verticalAlign=middle;whiteSpace=wrap;rounded=0;" vertex="1" parent="1">
          <mxGeometry x="2870.5" y="740" width="80" height="52" as="geometry" />
        </mxCell>
        <mxCell id="bloDdJwxvZP5sfPyRFxj-118" value="&lt;h3&gt;&lt;font style=&quot;font-size: 50px&quot;&gt;30&lt;/font&gt;&lt;/h3&gt;" style="text;html=1;strokeColor=none;fillColor=none;align=center;verticalAlign=middle;whiteSpace=wrap;rounded=0;" vertex="1" parent="1">
          <mxGeometry x="1280" y="425" width="80" height="52" as="geometry" />
        </mxCell>
        <mxCell id="bloDdJwxvZP5sfPyRFxj-119" value="&lt;h3&gt;&lt;span style=&quot;font-size: 50px&quot;&gt;2&lt;/span&gt;&lt;/h3&gt;" style="text;html=1;strokeColor=none;fillColor=none;align=center;verticalAlign=middle;whiteSpace=wrap;rounded=0;" vertex="1" parent="1">
          <mxGeometry x="2870.5" y="425" width="80" height="52" as="geometry" />
        </mxCell>
        <mxCell id="bloDdJwxvZP5sfPyRFxj-120" value="&lt;h3&gt;&lt;span style=&quot;font-size: 50px&quot;&gt;3&lt;/span&gt;&lt;/h3&gt;" style="text;html=1;strokeColor=none;fillColor=none;align=center;verticalAlign=middle;whiteSpace=wrap;rounded=0;" vertex="1" parent="1">
          <mxGeometry x="2650" y="425" width="80" height="52" as="geometry" />
        </mxCell>
        <mxCell id="bloDdJwxvZP5sfPyRFxj-121" value="&lt;h3&gt;&lt;span style=&quot;font-size: 50px&quot;&gt;4&lt;/span&gt;&lt;/h3&gt;" style="text;html=1;strokeColor=none;fillColor=none;align=center;verticalAlign=middle;whiteSpace=wrap;rounded=0;" vertex="1" parent="1">
          <mxGeometry x="2650" y="584" width="80" height="52" as="geometry" />
        </mxCell>
        <mxCell id="bloDdJwxvZP5sfPyRFxj-122" value="&lt;h3&gt;&lt;span style=&quot;font-size: 50px&quot;&gt;5&lt;/span&gt;&lt;/h3&gt;" style="text;html=1;strokeColor=none;fillColor=none;align=center;verticalAlign=middle;whiteSpace=wrap;rounded=0;" vertex="1" parent="1">
          <mxGeometry x="2650" y="740" width="80" height="52" as="geometry" />
        </mxCell>
        <mxCell id="bloDdJwxvZP5sfPyRFxj-123" value="&lt;h3&gt;&lt;span style=&quot;font-size: 50px&quot;&gt;6&lt;/span&gt;&lt;/h3&gt;" style="text;html=1;strokeColor=none;fillColor=none;align=center;verticalAlign=middle;whiteSpace=wrap;rounded=0;" vertex="1" parent="1">
          <mxGeometry x="2650" y="898" width="80" height="52" as="geometry" />
        </mxCell>
        <mxCell id="bloDdJwxvZP5sfPyRFxj-124" value="&lt;h3&gt;&lt;span style=&quot;font-size: 50px&quot;&gt;7&lt;/span&gt;&lt;/h3&gt;" style="text;html=1;strokeColor=none;fillColor=none;align=center;verticalAlign=middle;whiteSpace=wrap;rounded=0;" vertex="1" parent="1">
          <mxGeometry x="2650" y="1070" width="80" height="52" as="geometry" />
        </mxCell>
        <mxCell id="bloDdJwxvZP5sfPyRFxj-125" value="&lt;h3&gt;&lt;span style=&quot;font-size: 50px&quot;&gt;8&lt;/span&gt;&lt;/h3&gt;" style="text;html=1;strokeColor=none;fillColor=none;align=center;verticalAlign=middle;whiteSpace=wrap;rounded=0;" vertex="1" parent="1">
          <mxGeometry x="2650" y="1220" width="80" height="52" as="geometry" />
        </mxCell>
        <mxCell id="bloDdJwxvZP5sfPyRFxj-126" value="&lt;h3&gt;&lt;span style=&quot;font-size: 50px&quot;&gt;9&lt;/span&gt;&lt;/h3&gt;" style="text;html=1;strokeColor=none;fillColor=none;align=center;verticalAlign=middle;whiteSpace=wrap;rounded=0;" vertex="1" parent="1">
          <mxGeometry x="2400" y="1223" width="80" height="52" as="geometry" />
        </mxCell>
        <mxCell id="bloDdJwxvZP5sfPyRFxj-128" value="&lt;h3&gt;&lt;span style=&quot;font-size: 50px&quot;&gt;14&lt;/span&gt;&lt;/h3&gt;" style="text;html=1;strokeColor=none;fillColor=none;align=center;verticalAlign=middle;whiteSpace=wrap;rounded=0;" vertex="1" parent="1">
          <mxGeometry x="2400" y="425" width="80" height="52" as="geometry" />
        </mxCell>
        <mxCell id="bloDdJwxvZP5sfPyRFxj-129" value="&lt;h3&gt;&lt;span style=&quot;font-size: 50px&quot;&gt;13&lt;/span&gt;&lt;/h3&gt;" style="text;html=1;strokeColor=none;fillColor=none;align=center;verticalAlign=middle;whiteSpace=wrap;rounded=0;" vertex="1" parent="1">
          <mxGeometry x="2400" y="584" width="80" height="52" as="geometry" />
        </mxCell>
        <mxCell id="bloDdJwxvZP5sfPyRFxj-130" value="&lt;h3&gt;&lt;span style=&quot;font-size: 50px&quot;&gt;12&lt;/span&gt;&lt;/h3&gt;" style="text;html=1;strokeColor=none;fillColor=none;align=center;verticalAlign=middle;whiteSpace=wrap;rounded=0;" vertex="1" parent="1">
          <mxGeometry x="2400" y="740" width="80" height="52" as="geometry" />
        </mxCell>
        <mxCell id="bloDdJwxvZP5sfPyRFxj-131" value="&lt;h3&gt;&lt;span style=&quot;font-size: 50px&quot;&gt;11&lt;/span&gt;&lt;/h3&gt;" style="text;html=1;strokeColor=none;fillColor=none;align=center;verticalAlign=middle;whiteSpace=wrap;rounded=0;" vertex="1" parent="1">
          <mxGeometry x="2400" y="898" width="80" height="52" as="geometry" />
        </mxCell>
        <mxCell id="bloDdJwxvZP5sfPyRFxj-132" value="&lt;h3&gt;&lt;span style=&quot;font-size: 50px&quot;&gt;10&lt;/span&gt;&lt;/h3&gt;" style="text;html=1;strokeColor=none;fillColor=none;align=center;verticalAlign=middle;whiteSpace=wrap;rounded=0;" vertex="1" parent="1">
          <mxGeometry x="2400" y="1070" width="80" height="52" as="geometry" />
        </mxCell>
        <mxCell id="bloDdJwxvZP5sfPyRFxj-134" value="&lt;h3&gt;&lt;span style=&quot;font-size: 50px&quot;&gt;15&lt;/span&gt;&lt;/h3&gt;" style="text;html=1;strokeColor=none;fillColor=none;align=center;verticalAlign=middle;whiteSpace=wrap;rounded=0;" vertex="1" parent="1">
          <mxGeometry x="2160" y="425" width="80" height="52" as="geometry" />
        </mxCell>
        <mxCell id="bloDdJwxvZP5sfPyRFxj-135" value="&lt;h3&gt;&lt;span style=&quot;font-size: 50px&quot;&gt;16&lt;/span&gt;&lt;/h3&gt;" style="text;html=1;strokeColor=none;fillColor=none;align=center;verticalAlign=middle;whiteSpace=wrap;rounded=0;" vertex="1" parent="1">
          <mxGeometry x="2160" y="584" width="80" height="52" as="geometry" />
        </mxCell>
        <mxCell id="bloDdJwxvZP5sfPyRFxj-136" value="&lt;h3&gt;&lt;span style=&quot;font-size: 50px&quot;&gt;17&lt;/span&gt;&lt;/h3&gt;" style="text;html=1;strokeColor=none;fillColor=none;align=center;verticalAlign=middle;whiteSpace=wrap;rounded=0;" vertex="1" parent="1">
          <mxGeometry x="2160" y="740" width="80" height="52" as="geometry" />
        </mxCell>
        <mxCell id="bloDdJwxvZP5sfPyRFxj-137" value="&lt;h3&gt;&lt;span style=&quot;font-size: 50px&quot;&gt;18&lt;/span&gt;&lt;/h3&gt;" style="text;html=1;strokeColor=none;fillColor=none;align=center;verticalAlign=middle;whiteSpace=wrap;rounded=0;" vertex="1" parent="1">
          <mxGeometry x="2160" y="898" width="80" height="52" as="geometry" />
        </mxCell>
        <mxCell id="bloDdJwxvZP5sfPyRFxj-140" value="&lt;h3&gt;&lt;span style=&quot;font-size: 50px&quot;&gt;22&lt;/span&gt;&lt;/h3&gt;" style="text;html=1;strokeColor=none;fillColor=none;align=center;verticalAlign=middle;whiteSpace=wrap;rounded=0;" vertex="1" parent="1">
          <mxGeometry x="1750.5" y="425" width="80" height="52" as="geometry" />
        </mxCell>
        <mxCell id="bloDdJwxvZP5sfPyRFxj-141" value="&lt;h3&gt;&lt;span style=&quot;font-size: 50px&quot;&gt;21&lt;/span&gt;&lt;/h3&gt;" style="text;html=1;strokeColor=none;fillColor=none;align=center;verticalAlign=middle;whiteSpace=wrap;rounded=0;" vertex="1" parent="1">
          <mxGeometry x="1750.5" y="584" width="80" height="52" as="geometry" />
        </mxCell>
        <mxCell id="bloDdJwxvZP5sfPyRFxj-142" value="&lt;h3&gt;&lt;span style=&quot;font-size: 50px&quot;&gt;20&lt;/span&gt;&lt;/h3&gt;" style="text;html=1;strokeColor=none;fillColor=none;align=center;verticalAlign=middle;whiteSpace=wrap;rounded=0;" vertex="1" parent="1">
          <mxGeometry x="1750.5" y="740" width="80" height="52" as="geometry" />
        </mxCell>
        <mxCell id="bloDdJwxvZP5sfPyRFxj-143" value="&lt;h3&gt;&lt;span style=&quot;font-size: 50px&quot;&gt;19&lt;/span&gt;&lt;/h3&gt;" style="text;html=1;strokeColor=none;fillColor=none;align=center;verticalAlign=middle;whiteSpace=wrap;rounded=0;" vertex="1" parent="1">
          <mxGeometry x="1750.5" y="898" width="80" height="52" as="geometry" />
        </mxCell>
        <mxCell id="bloDdJwxvZP5sfPyRFxj-144" value="&lt;h3&gt;&lt;span style=&quot;font-size: 50px&quot;&gt;23&lt;/span&gt;&lt;/h3&gt;" style="text;html=1;strokeColor=none;fillColor=none;align=center;verticalAlign=middle;whiteSpace=wrap;rounded=0;" vertex="1" parent="1">
          <mxGeometry x="1520" y="425" width="80" height="52" as="geometry" />
        </mxCell>
        <mxCell id="bloDdJwxvZP5sfPyRFxj-145" value="&lt;h3&gt;&lt;span style=&quot;font-size: 50px&quot;&gt;24&lt;/span&gt;&lt;/h3&gt;" style="text;html=1;strokeColor=none;fillColor=none;align=center;verticalAlign=middle;whiteSpace=wrap;rounded=0;" vertex="1" parent="1">
          <mxGeometry x="1520" y="584" width="80" height="52" as="geometry" />
        </mxCell>
        <mxCell id="bloDdJwxvZP5sfPyRFxj-146" value="&lt;h3&gt;&lt;span style=&quot;font-size: 50px&quot;&gt;25&lt;/span&gt;&lt;/h3&gt;" style="text;html=1;strokeColor=none;fillColor=none;align=center;verticalAlign=middle;whiteSpace=wrap;rounded=0;" vertex="1" parent="1">
          <mxGeometry x="1520" y="740" width="80" height="52" as="geometry" />
        </mxCell>
        <mxCell id="bloDdJwxvZP5sfPyRFxj-147" value="&lt;h3&gt;&lt;span style=&quot;font-size: 50px&quot;&gt;26&lt;/span&gt;&lt;/h3&gt;" style="text;html=1;strokeColor=none;fillColor=none;align=center;verticalAlign=middle;whiteSpace=wrap;rounded=0;" vertex="1" parent="1">
          <mxGeometry x="1520" y="898" width="80" height="52" as="geometry" />
        </mxCell>
        <mxCell id="bloDdJwxvZP5sfPyRFxj-148" value="&lt;h3&gt;&lt;span style=&quot;font-size: 50px&quot;&gt;27&lt;/span&gt;&lt;/h3&gt;" style="text;html=1;strokeColor=none;fillColor=none;align=center;verticalAlign=middle;whiteSpace=wrap;rounded=0;" vertex="1" parent="1">
          <mxGeometry x="1520" y="1070" width="80" height="52" as="geometry" />
        </mxCell>
        <mxCell id="bloDdJwxvZP5sfPyRFxj-149" value="&lt;h3&gt;&lt;span style=&quot;font-size: 50px&quot;&gt;28&lt;/span&gt;&lt;/h3&gt;" style="text;html=1;strokeColor=none;fillColor=none;align=center;verticalAlign=middle;whiteSpace=wrap;rounded=0;" vertex="1" parent="1">
          <mxGeometry x="1520" y="1220" width="80" height="52" as="geometry" />
        </mxCell>
        <mxCell id="bloDdJwxvZP5sfPyRFxj-150" value="&lt;h3&gt;&lt;font style=&quot;font-size: 50px&quot;&gt;29&lt;/font&gt;&lt;/h3&gt;" style="text;html=1;strokeColor=none;fillColor=none;align=center;verticalAlign=middle;whiteSpace=wrap;rounded=0;" vertex="1" parent="1">
          <mxGeometry x="1281" y="740" width="80" height="52" as="geometry" />
        </mxCell>
      </root>
    </mxGraphModel>
  </diagram>
</mxfile>
